{"title":"Laal Rang (2016) Tiny 720p DvDRip x264 AAC 5.1 ESub -DDR","uid":15938214,"size":1883140032,"categoryP":"video","categoryS":"hd___movies","magnet":"?xt=urn:btih:f3d52705b0cd39a89bd14cace5b4ec6d0eb621c8&amp;dn=Laal+Rang+%282016%29+Tiny+720p+DvDRip+x264+AAC+5.1+ESub+-DDR&amp;tr=udp%3A%2F%2Ftracker.leechers-paradise.org%3A6969&amp;tr=udp%3A%2F%2Fzer0day.ch%3A1337&amp;tr=udp%3A%2F%2Fopen.demonii.com%3A1337&amp;tr=udp%3A%2F%2Ftracker.coppersurfer.tk%3A6969&amp;tr=udp%3A%2F%2Fexodus.desync.com%3A6969","seeders":26,"leechers":43,"uploader":"SaM","files":3,"time":1475424564,"description":"** 2016**\r\n\r\n** Tiny 720p / DVDrip / x264\r\n\r\nHindi Untouched AAC 5.1 **\r\n\r\n** English Subtitle(s) **\r\n \nhttps://extraimago.com/image/w0i4 \nhttps://extraimago.com/image/w0ie \nhttps://extraimago.com/image/w0iZ \nhttps://extraimago.com/image/w0iK \nhttps://extraimago.com/image/w0iJ \nhttps://extraimago.com/image/w0i0 \nhttps://extraimago.com/image/w0iz \nhttps://extraimago.com/image/w0iU \nhttps://extraimago.com/image/w0iM \nhttps://extraimago.com/image/w0i9 \nhttps://extraimago.com/image/w0i3 \nhttps://extraimago.com/image/w0ib \nhttps://extraimago.com/image/w0ih \nhttps://extraimago.com/image/w0id\r\n\r\n\r\n[ Info ]\r\n\r\nSource : DVD9 @ DDR\r\nGeneral\r\nFormat : Matroska\r\nFormat version : Version 4 / Version 2\r\nFile size : 1.74 GiB\r\nDuration : 2 h 29 min\r\nOverall bit rate : 1 663 kb/s\r\n\r\nVideo\r\nID : 1\r\nFormat : AVC\r\nFormat/Info : Advanced Video Codec\r\nFormat profile :   \r\nFormat settings, CABAC : Yes\r\nFormat settings, ReFrames : 12 frames\r\nCodec ID : V_MPEG4/ISO/AVC\r\nDuration : 2 h 29 min\r\nBit rate : 1 499 kb/s\r\nWidth : 1 280 pixels\r\nHeight : 544 pixels\r\nDisplay aspect ratio : 2.35:1\r\nFrame rate mode : Constant\r\nFrame rate : 23.976 (24000/1001) FPS\r\nColor space : YUV\r\nChroma subsampling : 4:2:0\r\nBit depth : 8 bits\r\nScan type : Progressive\r\nBits/(Pixel*Frame) : 0.090\r\nStream size : 1.57 GiB (90%)\r\nDefault : Yes\r\nForced : No\r\nColor range : Limited\r\nColor primaries : BT.709\r\nTransfer characteristics : BT.709\r\nMatrix coefficients : BT.709\r\n\r\nAudio\r\nID : 2\r\nFormat : AAC\r\nFormat/Info : Advanced Audio Codec\r\nFormat profile : LC\r\nCodec ID : A_AAC\r\nDuration : 2 h 29 min\r\nBit rate : 160 kb/s\r\nChannel(s) : 6 channels\r\nChannel positions : Front: L C R, Side: L R, LFE\r\nSampling rate : 48.0 kHz\r\nFrame rate : 46.875 FPS (1024 spf)\r\nCompression mode : Lossy\r\nDelay relative to video : 9 ms\r\nStream size : 171 MiB (10%)\r\nLanguage : Hindi\r\nDefault : Yes\r\nForced : No\r\nChapters : YES","torrent":{"xt":"urn:btih:f3d52705b0cd39a89bd14cace5b4ec6d0eb621c8","amp;dn":"Laal+Rang+%282016%29+Tiny+720p+DvDRip+x264+AAC+5.1+ESub+-DDR","amp;tr":["udp%3A%2F%2Ftracker.leechers-paradise.org%3A6969","udp%3A%2F%2Fzer0day.ch%3A1337","udp%3A%2F%2Fopen.demonii.com%3A1337","udp%3A%2F%2Ftracker.coppersurfer.tk%3A6969","udp%3A%2F%2Fexodus.desync.com%3A6969"],"infoHash":"f3d52705b0cd39a89bd14cace5b4ec6d0eb621c8","infoHashBuffer":{"type":"Buffer","data":[243,213,39,5,176,205,57,168,155,209,76,172,229,180,236,109,14,182,33,200]},"announce":[],"urlList":[]}}